<svg width="58" height="58" viewBox="0 0 58 58" fill="none" xmlns="http://www.w3.org/2000/svg">
<path d="M26.4219 41.0234H31.1797V31.032L34.9859 34.8383L38.3164 31.5078L28.8008 21.9922L19.2852 31.5078L22.6156 34.8383L26.4219 31.032V41.0234ZM9.76954 48.1602C8.46114 48.1602 7.34067 47.6939 6.40814 46.7614C5.47561 45.8288 5.01014 44.7092 5.01172 43.4023V14.8555C5.01172 13.5471 5.47799 12.4266 6.41052 11.4941C7.34305 10.5615 8.46272 10.0961 9.76954 10.0977H24.043L28.8008 14.8555H47.832C49.1404 14.8555 50.2609 15.3217 51.1934 16.2543C52.126 17.1868 52.5914 18.3065 52.5898 19.6133V43.4023C52.5898 44.7107 52.1236 45.8312 51.1911 46.7637C50.2585 47.6963 49.1388 48.1617 47.832 48.1602H9.76954ZM9.76954 14.8555V43.4023H47.832V19.6133H26.8382L22.0804 14.8555H9.76954Z" fill="black"/>
</svg>
