<svg width="30" height="30" viewBox="0 0 30 30" fill="none" xmlns="http://www.w3.org/2000/svg">
<path fill-rule="evenodd" clip-rule="evenodd" d="M14.9205 25.8743C20.9265 25.8743 25.7955 21.0054 25.7955 14.9993C25.7955 8.99333 20.9265 4.12435 14.9205 4.12435C8.91447 4.12435 4.04549 8.99333 4.04549 14.9993C4.04549 21.0054 8.91447 25.8743 14.9205 25.8743ZM14.9205 27.0827C21.5941 27.0827 27.0038 21.673 27.0038 14.9993C27.0038 8.32572 21.5941 2.91602 14.9205 2.91602C8.24687 2.91602 2.83716 8.32572 2.83716 14.9993C2.83716 21.673 8.24687 27.0827 14.9205 27.0827Z" fill="#111439"/>
<path d="M7.67053 22.0263C7.67053 21.4022 8.13695 20.8748 8.75803 20.8059C13.4192 20.2899 16.443 20.3365 21.0939 20.8174C21.3262 20.8418 21.5463 20.9333 21.7274 21.0807C21.9085 21.2281 22.0427 21.4251 22.1137 21.6476C22.1847 21.8701 22.1894 22.1084 22.1272 22.3335C22.0649 22.5586 21.9385 22.7606 21.7633 22.9151C16.2745 27.6994 13.1376 27.6336 8.0572 22.9199C7.80949 22.6903 7.67053 22.3634 7.67053 22.0263Z" fill="#111439"/>
<path fill-rule="evenodd" clip-rule="evenodd" d="M21.0316 21.4169C16.4176 20.9396 13.4372 20.8949 8.82381 21.4054C8.67195 21.4231 8.53195 21.4962 8.43062 21.6107C8.32929 21.7252 8.27374 21.873 8.27462 22.0259C8.27462 22.1987 8.34652 22.3624 8.46795 22.476C10.9861 24.8117 12.8941 25.8672 14.7591 25.8739C16.6308 25.8805 18.6415 24.8335 21.3663 22.4591C21.4529 22.3821 21.5152 22.2815 21.5457 22.1697C21.5762 22.0579 21.5735 21.9397 21.5381 21.8293C21.5026 21.719 21.4359 21.6214 21.346 21.5482C21.2561 21.4751 21.1468 21.4291 21.0316 21.4169ZM8.6915 20.2044C13.4016 19.683 16.4695 19.7301 21.1567 20.2152C21.5061 20.2517 21.8372 20.3893 22.1097 20.611C22.3821 20.8328 22.5839 21.1292 22.6905 21.464C22.797 21.7987 22.8037 22.1573 22.7096 22.4957C22.6155 22.8342 22.4248 23.1379 22.1608 23.3696C19.3967 25.779 17.0948 27.0913 14.7555 27.0822C12.4095 27.0737 10.2092 25.7391 7.64689 23.3617C7.46344 23.1909 7.31719 22.984 7.21729 22.754C7.1174 22.5241 7.06599 22.276 7.06629 22.0253C7.06541 21.5749 7.23074 21.1399 7.53063 20.8038C7.83051 20.4677 8.24386 20.2546 8.6915 20.2044Z" fill="#111439"/>
<path d="M19.7538 12.5833C19.7538 13.8652 19.2446 15.0946 18.3382 16.001C17.4317 16.9074 16.2024 17.4167 14.9205 17.4167C13.6386 17.4167 12.4092 16.9074 11.5028 16.001C10.5964 15.0946 10.0872 13.8652 10.0872 12.5833C10.0872 11.3015 10.5964 10.0721 11.5028 9.16565C12.4092 8.25922 13.6386 7.75 14.9205 7.75C16.2024 7.75 17.4317 8.25922 18.3382 9.16565C19.2446 10.0721 19.7538 11.3015 19.7538 12.5833Z" fill="#111439"/>
<path fill-rule="evenodd" clip-rule="evenodd" d="M14.9205 16.2083C15.8819 16.2083 16.8039 15.8264 17.4838 15.1466C18.1636 14.4668 18.5455 13.5447 18.5455 12.5833C18.5455 11.6219 18.1636 10.6999 17.4838 10.0201C16.8039 9.34025 15.8819 8.95833 14.9205 8.95833C13.9591 8.95833 13.037 9.34025 12.3572 10.0201C11.6774 10.6999 11.2955 11.6219 11.2955 12.5833C11.2955 13.5447 11.6774 14.4668 12.3572 15.1466C13.037 15.8264 13.9591 16.2083 14.9205 16.2083ZM14.9205 17.4167C16.2024 17.4167 17.4317 16.9074 18.3382 16.001C19.2446 15.0946 19.7538 13.8652 19.7538 12.5833C19.7538 11.3015 19.2446 10.0721 18.3382 9.16565C17.4317 8.25922 16.2024 7.75 14.9205 7.75C13.6386 7.75 12.4092 8.25922 11.5028 9.16565C10.5964 10.0721 10.0872 11.3015 10.0872 12.5833C10.0872 13.8652 10.5964 15.0946 11.5028 16.001C12.4092 16.9074 13.6386 17.4167 14.9205 17.4167Z" fill="#111439"/>
</svg>
