<svg width="17" height="37" viewBox="0 0 17 37" fill="none" xmlns="http://www.w3.org/2000/svg">
<path d="M16.1638 34.0347L9.07935 35.9983L1.42053 34.0347L6.50856 12.0886L4.10112 2.73259L9.07935 1L16.1638 2.73259L12.6216 17.8639L16.1638 34.0347Z" fill="#111439"/>
<path d="M1.42053 34.0347L9.07935 32.9951M1.42053 34.0347L9.07935 35.9983L16.1638 34.0347M1.42053 34.0347L6.50856 12.0886M9.07935 32.9951L16.1638 34.0347M9.07935 32.9951L12.6216 17.8639M16.1638 34.0347L12.6216 17.8639M9.07935 1L16.1638 2.73259L12.6216 17.8639M9.07935 1L6.50856 12.0886M9.07935 1L4.10112 2.73259L6.50856 12.0886" stroke="white" stroke-width="1.21733"/>
</svg>
